<?xml version="1.0" encoding="utf-8"?>
<svg viewBox="0 0 500 500" xmlns="http://www.w3.org/2000/svg">
  <defs/>
  <path d="M 184.325 186.788 L 184.325 179.088 L 186.976 179.088 C 187.585 179.088 188.083 179.19 188.472 179.396 C 188.868 179.601 189.161 179.88 189.352 180.232 C 189.543 180.576 189.638 180.961 189.638 181.387 C 189.638 181.863 189.51 182.296 189.253 182.685 C 189.004 183.073 188.611 183.352 188.076 183.521 L 189.715 186.788 L 188.362 186.788 L 186.866 183.686 L 185.491 183.686 L 185.491 186.788 L 184.325 186.788 Z M 185.491 182.806 L 186.91 182.806 C 187.438 182.806 187.823 182.677 188.065 182.421 C 188.314 182.164 188.439 181.83 188.439 181.42 C 188.439 181.009 188.318 180.683 188.076 180.441 C 187.834 180.191 187.442 180.067 186.899 180.067 L 185.491 180.067 L 185.491 182.806 Z" fill="#E4C590"/>
  <path d="M 194.978 186.788 L 194.978 179.088 L 199.873 179.088 L 199.873 180.034 L 196.144 180.034 L 196.144 182.432 L 199.543 182.432 L 199.543 183.356 L 196.144 183.356 L 196.144 185.842 L 199.873 185.842 L 199.873 186.788 L 194.978 186.788 Z" fill="#E4C590"/>
  <path d="M 207.763 186.92 C 207.198 186.92 206.703 186.821 206.278 186.623 C 205.852 186.425 205.519 186.142 205.277 185.776 C 205.042 185.409 204.921 184.973 204.914 184.467 L 206.146 184.467 C 206.153 184.877 206.296 185.226 206.575 185.512 C 206.853 185.798 207.246 185.941 207.752 185.941 C 208.199 185.941 208.547 185.834 208.797 185.622 C 209.053 185.402 209.182 185.123 209.182 184.786 C 209.182 184.514 209.119 184.294 208.995 184.126 C 208.877 183.957 208.712 183.818 208.5 183.708 C 208.294 183.598 208.056 183.499 207.785 183.411 C 207.513 183.323 207.227 183.227 206.927 183.125 C 206.333 182.927 205.885 182.67 205.585 182.355 C 205.291 182.039 205.145 181.625 205.145 181.112 C 205.137 180.679 205.236 180.301 205.442 179.979 C 205.654 179.656 205.948 179.407 206.322 179.231 C 206.703 179.047 207.147 178.956 207.653 178.956 C 208.151 178.956 208.588 179.047 208.962 179.231 C 209.343 179.414 209.64 179.671 209.853 180.001 C 210.065 180.323 210.175 180.701 210.183 181.134 L 208.951 181.134 C 208.951 180.936 208.899 180.749 208.797 180.573 C 208.694 180.389 208.544 180.239 208.346 180.122 C 208.148 180.004 207.906 179.946 207.62 179.946 C 207.253 179.938 206.949 180.03 206.707 180.221 C 206.472 180.411 206.355 180.675 206.355 181.013 C 206.355 181.313 206.443 181.544 206.619 181.706 C 206.795 181.867 207.037 182.003 207.345 182.113 C 207.653 182.215 208.005 182.336 208.401 182.476 C 208.782 182.6 209.123 182.751 209.424 182.927 C 209.724 183.103 209.963 183.334 210.139 183.62 C 210.322 183.906 210.414 184.269 210.414 184.709 C 210.414 185.097 210.315 185.46 210.117 185.798 C 209.919 186.128 209.622 186.399 209.226 186.612 C 208.83 186.817 208.342 186.92 207.763 186.92 Z" fill="#E4C590"/>
  <path d="M 217.313 186.788 L 217.313 180.034 L 215.036 180.034 L 215.036 179.088 L 220.745 179.088 L 220.745 180.034 L 218.479 180.034 L 218.479 186.788 L 217.313 186.788 Z" fill="#E4C590"/>
  <path d="M 224.463 186.788 L 227.301 179.088 L 228.577 179.088 L 231.393 186.788 L 230.161 186.788 L 229.501 184.907 L 226.355 184.907 L 225.695 186.788 L 224.463 186.788 Z M 226.685 183.983 L 229.171 183.983 L 227.928 180.474 L 226.685 183.983 Z" fill="#E4C590"/>
  <path d="M 238.976 186.92 C 238.426 186.92 237.927 186.813 237.48 186.601 C 237.04 186.381 236.688 186.047 236.424 185.6 C 236.167 185.152 236.039 184.584 236.039 183.895 L 236.039 179.088 L 237.205 179.088 L 237.205 183.906 C 237.205 184.58 237.366 185.075 237.689 185.391 C 238.011 185.706 238.448 185.864 238.998 185.864 C 239.54 185.864 239.973 185.706 240.296 185.391 C 240.618 185.075 240.78 184.58 240.78 183.906 L 240.78 179.088 L 241.946 179.088 L 241.946 183.895 C 241.946 184.584 241.81 185.152 241.539 185.6 C 241.275 186.047 240.915 186.381 240.461 186.601 C 240.013 186.813 239.518 186.92 238.976 186.92 Z" fill="#E4C590"/>
  <path d="M 247.401 186.788 L 247.401 179.088 L 250.052 179.088 C 250.661 179.088 251.16 179.19 251.548 179.396 C 251.944 179.601 252.238 179.88 252.428 180.232 C 252.619 180.576 252.714 180.961 252.714 181.387 C 252.714 181.863 252.586 182.296 252.329 182.685 C 252.08 183.073 251.688 183.352 251.152 183.521 L 252.791 186.788 L 251.438 186.788 L 249.942 183.686 L 248.567 183.686 L 248.567 186.788 L 247.401 186.788 Z M 248.567 182.806 L 249.986 182.806 C 250.514 182.806 250.899 182.677 251.141 182.421 C 251.391 182.164 251.515 181.83 251.515 181.42 C 251.515 181.009 251.394 180.683 251.152 180.441 C 250.91 180.191 250.518 180.067 249.975 180.067 L 248.567 180.067 L 248.567 182.806 Z" fill="#E4C590"/>
  <path d="M 257.559 186.788 L 260.397 179.088 L 261.673 179.088 L 264.489 186.788 L 263.257 186.788 L 262.597 184.907 L 259.451 184.907 L 258.791 186.788 L 257.559 186.788 Z M 259.781 183.983 L 262.267 183.983 L 261.024 180.474 L 259.781 183.983 Z" fill="#E4C590"/>
  <path d="M 269.523 186.788 L 269.523 179.088 L 270.689 179.088 L 274.55 184.885 L 274.55 179.088 L 275.716 179.088 L 275.716 186.788 L 274.55 186.788 L 270.689 180.991 L 270.689 186.788 L 269.523 186.788 Z" fill="#E4C590"/>
  <path d="M 283.042 186.788 L 283.042 180.034 L 280.765 180.034 L 280.765 179.088 L 286.474 179.088 L 286.474 180.034 L 284.208 180.034 L 284.208 186.788 L 283.042 186.788 Z" fill="#E4C590"/>
  <path fill-rule="evenodd" clip-rule="evenodd" d="M 162.838 184.925 C 160.009 186.457 156.769 187.328 153.325 187.328 C 142.279 187.328 133.325 178.373 133.325 167.328 C 133.325 156.282 142.279 147.328 153.325 147.328 C 156.377 147.328 159.27 148.011 161.858 149.234 C 161.691 149.447 161.534 149.671 161.387 149.907 C 160.695 151.017 160.15 152.36 159.795 153.791 C 157.836 152.853 155.642 152.328 153.325 152.328 C 145.041 152.328 138.325 159.043 138.325 167.328 C 138.325 175.612 145.041 182.328 153.325 182.328 C 157.617 182.328 161.487 180.526 164.221 177.637 C 163.921 178.743 163.514 179.931 162.962 181.26 C 162.551 182.137 162.437 182.777 162.437 183.788 C 162.437 184.194 162.585 184.575 162.838 184.925 Z M 159.339 156.941 C 159.182 160.604 160.356 164.194 163.488 165.583 C 164.46 166.456 165.063 167.54 165.063 168.948 C 165.063 169.25 165.063 169.546 165.062 169.838 C 163.908 175.26 159.092 179.328 153.325 179.328 C 146.698 179.328 141.325 173.955 141.325 167.328 C 141.325 160.7 146.698 155.328 153.325 155.328 C 155.517 155.328 157.571 155.915 159.339 156.941 Z" fill="#E4C590"/>
  <path d="M 172.086 165.206 C 177.123 162.885 176.903 155.479 174.136 150.867 C 171.325 146.182 167.119 146.114 164.268 150.867 C 161.515 155.454 161.261 162.877 166.317 165.206 C 167.243 166.069 167.951 167.763 167.951 169.154 C 167.951 173.344 168.209 176.636 166.025 181.467 C 165.634 182.335 165.451 182.991 165.451 183.534 C 165.451 185.626 167.133 187.328 169.202 187.328 C 171.27 187.328 172.952 185.626 172.952 183.534 C 172.952 182.991 172.77 182.335 172.378 181.467 C 170.164 176.569 170.452 173.05 170.452 169.154 C 170.452 167.763 171.16 166.069 172.086 165.206 Z" fill="#E4C590"/>
  <text style="white-space: pre; fill: rgb(51, 51, 51); font-family: Arial, sans-serif; font-size: 28px;" x="219.704" y="119.024"> </text>
  <text style="white-space: pre; fill: rgb(51, 51, 51); font-family: Arial, sans-serif; font-size: 28px;" x="391.544" y="139.762"> </text>
  <text style="white-space: pre; fill: rgb(51, 51, 51); font-family: Arial, sans-serif; font-size: 28px;" x="463.246" y="233.452"> </text>
  <text style="white-space: pre; fill: rgb(51, 51, 51); font-family: Arial, sans-serif; font-size: 28px;" x="296.898" y="136.894"> </text>
  <text style="white-space: pre; fill: rgb(51, 51, 51); font-family: Arial, sans-serif; font-size: 28px;" x="144.891" y="127.333"> </text>
  <text style="fill: rgb(255, 255, 255); font-family: Arial, sans-serif; font-size: 28px; white-space: pre;" x="193.648" y="167.486">MINA</text>
  <text style="white-space: pre; fill: rgb(51, 51, 51); font-family: Arial, sans-serif; font-size: 28px;" x="229.021" y="59.456"> </text>
  <text style="white-space: pre; fill: rgb(51, 51, 51); font-family: Arial, sans-serif; font-size: 28px;" x="280.646" y="144.542"> </text>
</svg>
