<?xml version="1.0" encoding="utf-8"?>
<svg viewBox="0 0 500 500" xmlns="http://www.w3.org/2000/svg">
  <defs/>
  <path d="M 176.813 218.888 L 176.813 205.42 L 181.063 205.42 C 182.038 205.42 182.837 205.599 183.46 205.959 C 184.094 206.317 184.564 206.806 184.87 207.421 C 185.176 208.023 185.328 208.696 185.328 209.442 C 185.328 210.274 185.124 211.031 184.712 211.712 C 184.313 212.391 183.683 212.878 182.826 213.174 L 185.451 218.888 L 183.283 218.888 L 180.885 213.463 L 178.683 213.463 L 178.683 218.888 L 176.813 218.888 Z M 178.683 211.923 L 180.956 211.923 C 181.802 211.923 182.42 211.698 182.808 211.25 C 183.207 210.8 183.406 210.217 183.406 209.499 C 183.406 208.781 183.214 208.21 182.826 207.787 C 182.437 207.349 181.809 207.132 180.939 207.132 L 178.683 207.132 L 178.683 211.923 Z" fill="#E4C590" style=""/>
  <path d="M 193.887 218.888 L 193.887 205.42 L 201.73 205.42 L 201.73 207.074 L 195.754 207.074 L 195.754 211.269 L 201.203 211.269 L 201.203 212.886 L 195.754 212.886 L 195.754 217.234 L 201.73 217.234 L 201.73 218.888 L 193.887 218.888 Z" fill="#E4C590" style=""/>
  <path d="M 214.374 219.119 C 213.47 219.119 212.676 218.946 211.994 218.6 C 211.312 218.253 210.778 217.758 210.39 217.118 C 210.014 216.476 209.821 215.713 209.809 214.828 L 211.783 214.828 C 211.795 215.546 212.023 216.156 212.471 216.656 C 212.917 217.156 213.545 217.407 214.356 217.407 C 215.073 217.407 215.632 217.22 216.032 216.849 C 216.442 216.464 216.649 215.976 216.649 215.386 C 216.649 214.91 216.547 214.525 216.349 214.232 C 216.159 213.937 215.895 213.693 215.555 213.501 C 215.227 213.309 214.844 213.135 214.41 212.982 C 213.974 212.827 213.515 212.659 213.035 212.482 C 212.084 212.135 211.365 211.685 210.885 211.135 C 210.413 210.581 210.18 209.857 210.18 208.961 C 210.166 208.202 210.325 207.541 210.655 206.979 C 210.994 206.413 211.466 205.978 212.065 205.67 C 212.676 205.348 213.387 205.189 214.198 205.189 C 214.996 205.189 215.696 205.348 216.297 205.67 C 216.906 205.99 217.383 206.44 217.723 207.017 C 218.064 207.58 218.24 208.241 218.253 208.999 L 216.278 208.999 C 216.278 208.653 216.195 208.325 216.032 208.017 C 215.867 207.696 215.626 207.434 215.309 207.229 C 214.992 207.022 214.604 206.921 214.146 206.921 C 213.557 206.907 213.07 207.068 212.682 207.402 C 212.306 207.734 212.119 208.196 212.119 208.787 C 212.119 209.311 212.259 209.715 212.542 209.999 C 212.823 210.281 213.211 210.519 213.706 210.712 C 214.198 210.889 214.762 211.102 215.397 211.346 C 216.007 211.563 216.553 211.827 217.037 212.135 C 217.516 212.443 217.9 212.847 218.182 213.347 C 218.476 213.848 218.624 214.482 218.624 215.252 C 218.624 215.931 218.464 216.565 218.147 217.156 C 217.83 217.734 217.354 218.207 216.719 218.581 C 216.084 218.939 215.302 219.119 214.374 219.119 Z" fill="#E4C590" style=""/>
  <path d="M 229.679 218.888 L 229.679 207.074 L 226.03 207.074 L 226.03 205.42 L 235.179 205.42 L 235.179 207.074 L 231.548 207.074 L 231.548 218.888 L 229.679 218.888 Z" fill="#E4C590" style=""/>
  <path d="M 241.137 218.888 L 245.685 205.42 L 247.73 205.42 L 252.242 218.888 L 250.269 218.888 L 249.211 215.598 L 244.17 215.598 L 243.112 218.888 L 241.137 218.888 Z M 244.697 213.982 L 248.682 213.982 L 246.69 207.844 L 244.697 213.982 Z" fill="#E4C590" style=""/>
  <path d="M 264.396 219.119 C 263.514 219.119 262.713 218.932 261.998 218.562 C 261.292 218.177 260.729 217.592 260.306 216.811 C 259.892 216.027 259.688 215.033 259.688 213.828 L 259.688 205.42 L 261.557 205.42 L 261.557 213.848 C 261.557 215.027 261.815 215.892 262.333 216.445 C 262.848 216.996 263.549 217.272 264.43 217.272 C 265.298 217.272 265.992 216.996 266.51 216.445 C 267.026 215.892 267.286 215.027 267.286 213.848 L 267.286 205.42 L 269.154 205.42 L 269.154 213.828 C 269.154 215.033 268.937 216.027 268.502 216.811 C 268.08 217.592 267.502 218.177 266.775 218.562 C 266.057 218.932 265.263 219.119 264.396 219.119 Z" fill="#E4C590" style=""/>
  <path d="M 277.897 218.888 L 277.897 205.42 L 282.144 205.42 C 283.121 205.42 283.92 205.599 284.542 205.959 C 285.178 206.317 285.648 206.806 285.952 207.421 C 286.259 208.023 286.411 208.696 286.411 209.442 C 286.411 210.274 286.206 211.031 285.793 211.712 C 285.395 212.391 284.766 212.878 283.908 213.174 L 286.535 218.888 L 284.367 218.888 L 281.969 213.463 L 279.765 213.463 L 279.765 218.888 L 277.897 218.888 Z M 279.765 211.923 L 282.038 211.923 C 282.885 211.923 283.502 211.698 283.89 211.25 C 284.29 210.8 284.49 210.217 284.49 209.499 C 284.49 208.781 284.296 208.21 283.908 207.787 C 283.52 207.349 282.891 207.132 282.021 207.132 L 279.765 207.132 L 279.765 211.923 Z" fill="#E4C590" style=""/>
  <path d="M 294.174 218.888 L 298.723 205.42 L 300.768 205.42 L 305.281 218.888 L 303.307 218.888 L 302.249 215.598 L 297.208 215.598 L 296.149 218.888 L 294.174 218.888 Z M 297.736 213.982 L 301.72 213.982 L 299.728 207.844 L 297.736 213.982 Z" fill="#E4C590" style=""/>
  <path d="M 313.347 218.888 L 313.347 205.42 L 315.217 205.42 L 321.404 215.56 L 321.404 205.42 L 323.272 205.42 L 323.272 218.888 L 321.404 218.888 L 315.217 208.749 L 315.217 218.888 L 313.347 218.888 Z" fill="#E4C590" style=""/>
  <path d="M 335.012 218.888 L 335.012 207.074 L 331.363 207.074 L 331.363 205.42 L 340.513 205.42 L 340.513 207.074 L 336.882 207.074 L 336.882 218.888 L 335.012 218.888 Z" fill="#E4C590" style=""/>
  <path fill-rule="evenodd" clip-rule="evenodd" d="M 142.38 215.629 C 137.847 218.31 132.655 219.833 127.135 219.833 C 109.433 219.833 95.084 204.17 95.084 184.851 C 95.084 165.529 109.433 149.868 127.135 149.868 C 132.025 149.868 136.662 151.062 140.81 153.202 C 140.541 153.574 140.291 153.967 140.056 154.379 C 138.946 156.321 138.072 158.669 137.504 161.173 C 134.364 159.533 130.848 158.614 127.135 158.614 C 113.86 158.614 103.097 170.358 103.097 184.851 C 103.097 199.34 113.86 211.088 127.135 211.088 C 134.013 211.088 140.215 207.935 144.596 202.882 C 144.116 204.817 143.463 206.894 142.579 209.219 C 141.92 210.753 141.737 211.873 141.737 213.64 C 141.737 214.351 141.975 215.018 142.38 215.629 Z M 136.772 166.683 C 136.52 173.089 138.402 179.368 143.422 181.798 C 144.979 183.325 145.946 185.222 145.946 187.684 C 145.946 188.212 145.946 188.73 145.944 189.24 C 144.095 198.725 136.377 205.84 127.135 205.84 C 116.514 205.84 107.904 196.442 107.904 184.851 C 107.904 173.258 116.514 163.862 127.135 163.862 C 130.647 163.862 133.94 164.887 136.772 166.683 Z" fill="#E4C590" style=""/>
  <path d="M 157.2 181.138 C 165.272 177.079 164.92 164.125 160.486 156.058 C 155.98 147.864 149.241 147.745 144.671 156.058 C 140.26 164.082 139.853 177.065 147.955 181.138 C 149.439 182.649 150.573 185.612 150.573 188.044 C 150.573 195.374 150.988 201.131 147.486 209.581 C 146.86 211.099 146.567 212.246 146.567 213.197 C 146.567 216.855 149.264 219.833 152.578 219.833 C 155.893 219.833 158.587 216.855 158.587 213.197 C 158.587 212.246 158.297 211.099 157.668 209.581 C 154.12 201.014 154.581 194.858 154.581 188.044 C 154.581 185.612 155.716 182.649 157.2 181.138 Z" fill="#E4C590" style=""/>
  <text style="white-space: pre; fill: rgb(51, 51, 51); font-family: Arial, sans-serif; font-size: 28px;" x="219.704" y="119.024"> </text>
  <text style="white-space: pre; fill: rgb(51, 51, 51); font-family: Arial, sans-serif; font-size: 28px;" x="391.544" y="139.762"> </text>
  <text style="white-space: pre; fill: rgb(51, 51, 51); font-family: Arial, sans-serif; font-size: 28px;" x="463.246" y="233.452"> </text>
  <text style="white-space: pre; fill: rgb(51, 51, 51); font-family: Arial, sans-serif; font-size: 28px;" x="296.898" y="136.894" transform="matrix(1.602548, 0, 0, 1.749113, -118.57563, -107.82502)"> </text>
  <text style="white-space: pre; fill: rgb(51, 51, 51); font-family: Arial, sans-serif; font-size: 28px;" x="144.891" y="127.333" transform="matrix(1.602548, 0, 0, 1.749113, -118.57563, -107.82502)"> </text>
  <text style="fill: rgb(255, 255, 255); font-family: Arial, sans-serif; font-size: 28px; white-space: pre;" x="193.648" y="167.486" transform="matrix(1.602548, 0, 0, 1.749113, -118.57563, -107.82502)">MINA</text>
  <text style="white-space: pre; fill: rgb(51, 51, 51); font-family: Arial, sans-serif; font-size: 28px;" x="229.021" y="59.456"> </text>
  <text style="white-space: pre; fill: rgb(51, 51, 51); font-family: Arial, sans-serif; font-size: 28px;" x="280.646" y="144.542" transform="matrix(1.602548, 0, 0, 1.749113, -118.57563, -107.82502)"> </text>
</svg>